<svg viewBox="0 0 512 512" xmlns="http://www.w3.org/2000/svg">
    <path
        d="M258,375.1a41.72,41.72,0,0,1,0,83.43,199.72,199.72,0,0,1-142.12-59.25A203.33,203.33,0,0,1,80.69,160.93a58.51,58.51,0,0,0,35.19,11.7,59.47,59.47,0,0,0,47.38-94.79,200.11,200.11,0,0,1,236.86,35.41,202.3,202.3,0,0,1,58.88,143,41.46,41.46,0,1,1-82.92.05v-.05a118.83,118.83,0,0,0-34.58-84,117.57,117.57,0,0,0-166.28-.72l-.72.72a119.35,119.35,0,0,0,0,168.05A117.33,117.33,0,0,0,258,375.1Z"
        fill="#001524" />
    <path
        d="M258,174.62c44.81,0,81.13,36.55,81.13,81.65S302.81,337.91,258,337.91s-81.13-36.55-81.13-81.64,36.32-81.65,81.13-81.65ZM282.58,202a23.81,23.81,0,1,0,23.66,24v-.15A23.72,23.72,0,0,0,282.59,202Z"
        fill="#3c9" fill-rule="evenodd" />
    <path d="M115.88,161.05a47.81,47.81,0,1,0-47.5-48.12v.32A47.74,47.74,0,0,0,115.88,161.05Z"
        fill="#3c9" fill-rule="evenodd" />
</svg>